<?xml version="1.0" encoding="UTF-8" standalone="no"?>
<svg
   width="80mm"
   height="55mm"
   viewBox="0 0 80 55"
   version="1.1"
   id="svg5"
   xml:space="preserve"
   sodipodi:docname="logo.svg"
   inkscape:version="1.4 (e7c3feb100, 2024-10-09)"
   xmlns:inkscape="http://www.inkscape.org/namespaces/inkscape"
   xmlns:sodipodi="http://sodipodi.sourceforge.net/DTD/sodipodi-0.dtd"
   xmlns="http://www.w3.org/2000/svg"
   xmlns:svg="http://www.w3.org/2000/svg"><defs
   id="defs1">
     
    </defs><sodipodi:namedview
   id="namedview1"
   pagecolor="#ffffff"
   bordercolor="#000000"
   borderopacity="0.25"
   inkscape:showpageshadow="2"
   inkscape:pageopacity="0.0"
   inkscape:pagecheckerboard="0"
   inkscape:deskcolor="#d1d1d1"
   inkscape:document-units="mm"
   inkscape:zoom="0.71604475"
   inkscape:cx="488.79627"
   inkscape:cy="88.681608"
   inkscape:window-width="1536"
   inkscape:window-height="792"
   inkscape:window-x="0"
   inkscape:window-y="0"
   inkscape:window-maximized="1"
   inkscape:current-layer="svg5" />   
    <path
   id="path4"
   style="fill:#f4f7fc;stroke-width:0.174944"
   d="m 63.263322,3.2488959 v 10e-4 c -0.347296,0.0017 -0.682443,0.0057 -0.997356,0.0124 -2.506712,0.149289 -2.981333,3.1273862 -0.509012,3.7119159 1.359677,0.3912317 1.704532,0.4471667 1.476395,0.6903967 L 53.710933,17.488297 42.061515,10.023637 C 40.776372,9.4605716 39.490582,9.1675306 38.20542,10.031437 L 16.027445,27.974515 c -2.241815,2.031823 0.478686,5.743729 3.482992,3.225126 L 40.215116,14.595487 c 0.216911,-0.166892 0.464709,-0.175788 0.736389,-0.02015 l 11.581722,7.60212 c 0.918663,0.644483 2.385247,0.708558 3.195671,-0.03359 l 11.533663,-11.44943 c 0,0 0.125411,1.207654 0.291455,1.862935 1.189475,2.123376 4.018323,0.828724 4.008541,-0.629419 0.0255,-1.009497 0.22233,-4.5019605 0.0615,-6.850742 -0.0091,-1.1870524 -0.85936,-1.7791391 -1.800407,-1.7161731 -1.087528,-0.02505 -4.12921,-0.124156 -6.560323,-0.112138 z m 6.31486,15.0254361 c -1.230486,0 -2.221053,0.990568 -2.221053,2.221053 V 46.711356 H 57.947367 V 30.860127 c 0,-1.230502 -0.990568,-2.220536 -2.221053,-2.220536 -1.230484,0 -2.22157,0.990034 -2.22157,2.220536 V 46.711356 H 44.80605 V 27.297554 c 0,-1.230484 -0.991086,-2.220537 -2.22157,-2.220537 -1.230485,0 -2.221053,0.990053 -2.221053,2.220537 V 46.711356 H 31.756718 V 33.359199 c 0,-1.230485 -0.990568,-2.220536 -2.221053,-2.220536 -1.230485,0 -2.220537,0.990051 -2.220537,2.220536 V 46.711356 H 19.08669 c 0.003,-0.04735 0.0072,-0.0945 0.0072,-0.142627 v -7.56698 c 0,-1.230372 -0.996332,-2.221053 -2.233973,-2.221053 -1.23764,0 -2.233972,0.990681 -2.233972,2.221053 v 7.56698 c 0,0.04813 0.0042,0.09528 0.0072,0.142627 H 4.7857544 c -1.4406592,0 -2.6003581,0.990569 -2.6003581,2.221053 0,1.230486 1.1596989,2.22157 2.6003581,2.22157 H 74.944262 c 1.440658,0 2.600358,-0.991084 2.600358,-2.22157 0,-1.230484 -1.1597,-2.221053 -2.600358,-2.221053 H 71.799751 V 20.495385 c 0,-1.230485 -0.991085,-2.221053 -2.221569,-2.221053 z" />
</svg>
