<?xml version="1.0" encoding="UTF-8" standalone="no"?>
<svg
   width="80.33902mm"
   height="76.163322mm"
   viewBox="0 0 80.33902 76.163322"
   version="1.1"
   id="svg5"
   xml:space="preserve"
   xmlns:inkscape="http://www.inkscape.org/namespaces/inkscape"
   xmlns:sodipodi="http://sodipodi.sourceforge.net/DTD/sodipodi-0.dtd"
   xmlns="http://www.w3.org/2000/svg"
   xmlns:svg="http://www.w3.org/2000/svg">   
    <g id="layer1" transform="translate(-64.73662,-110.82837)">
     <path style="fill:#323232;stroke-width:0.1" d="m 96.311951,110.82838 c -0.726972,0 -1.312582,0.58509 -1.312582,1.31206 v 27.5854 h -5.151623 c -0.851141,0 -1.536341,0.58509 -1.536341,1.31206 0,0.72697 0.6852,1.31258 1.536341,1.31258 h 5.151623 v 5.19245 c 0,0.72697 0.58561,1.31258 1.312582,1.31258 0.726971,0 1.312064,-0.58561 1.312064,-1.31258 v -5.19245 h 33.673395 c 0.85114,0 1.53634,-0.58561 1.53634,-1.31258 0,-0.72697 -0.6852,-1.31206 -1.53634,-1.31206 h -1.85777 v -15.48846 c 0,-0.72697 -0.58561,-1.31207 -1.31258,-1.31207 -0.72697,0 -1.31206,0.5851 -1.31206,1.31207 v 15.48846 h -5.55935 v -9.3648 c 0,-0.72698 -0.5851,-1.31207 -1.31207,-1.31207 -0.72697,0 -1.31258,0.58509 -1.31258,1.31207 v 9.3648 h -5.13922 v -11.46959 c 0,-0.72697 -0.58561,-1.31206 -1.31258,-1.31206 -0.72697,0 -1.31207,0.58509 -1.31207,1.31206 v 11.46959 h -5.08496 v -7.88841 c 0,-0.72697 -0.58509,-1.31206 -1.31206,-1.31206 -0.72697,0 -1.31207,0.58509 -1.31207,1.31206 v 7.88841 h -5.534025 v -27.5854 c 0,-0.72697 -0.585093,-1.31206 -1.312064,-1.31206 z m 28.025679,3.22047 c -0.19207,0.001 -0.37723,0.003 -0.55139,0.007 -1.38632,0.0882 -1.64893,1.84781 -0.28163,2.19315 0.75196,0.23114 0.94265,0.26402 0.81648,0.40772 l -5.26634,5.80378 -6.4425,-4.41006 c -0.71074,-0.33266 -1.42194,-0.50535 -2.13269,0.005 l -7.26312,7.78712 c -1.23982,1.2004 0.0743,3.10805 1.73581,1.62006 l 6.63887,-6.7107 c 0.11996,-0.0986 0.25696,-0.10385 0.40721,-0.0119 l 6.4053,4.4912 c 0.50806,0.38076 1.31913,0.41886 1.76733,-0.0196 l 6.37842,-6.76445 c 0,0 0.0694,0.71357 0.16123,1.10071 0.65783,1.25449 2.22233,0.4894 2.21692,-0.37207 0.0141,-0.59641 0.12305,-2.65964 0.0341,-4.0473 -0.005,-0.70131 -0.47537,-1.05109 -0.99581,-1.01389 -0.60145,-0.0148 -2.28369,-0.0732 -3.6282,-0.0661 z m 16.27859,31.33297 c -1.52478,-0.0159 -3.14431,0.38764 -4.33617,1.34101 l -11.72796,11.83752 c 0.34796,6.43959 -3.52486,7.23618 -5.90507,7.65483 h -13.66893 c -2.06496,0.0135 -2.03642,-2.45921 -0.0139,-2.48771 l 13.18472,0.0134 c 5.96755,-0.62552 3.8848,-7.45201 0.93534,-7.36751 l -17.27749,-0.10955 c -2.806879,-4.08297 -14.211905,-6.07353 -21.542359,0.65629 l 9.841777,20.66747 6.123657,-2.40554 21.542355,-0.10955 c 3.58504,0.43865 5.42889,-1.05056 6.99854,-2.84324 l 19.90214,-23.07301 c 1.41944,-2.18408 -1.14564,-3.74405 -4.0566,-3.77445 z m -64.288579,9.78855 -11.591024,5.24878 12.57546,26.57254 11.700578,-5.35782 z" />
    </g>
</svg>
